Patient4_TMGait_0pt5_01_left_04_GRF.mot
version=1
nRows=45
nColumns=19
inDegrees=no
endheader
time	F1x	F1y	F1z	M1x	M1y	M1z	F2x	F2y	F2z	M2x	M2y	M2z	EC1x	EC1y	EC1z	EC2x	EC2y	EC2z
5.23	-8.3354	4.7897	-7.3446	-1.3716	5.7729	9.7314	-34.7369	791.3389	-68.5232	297.7032	66.7793	627.0737	-0.0592	0.0182	-0.0073	-0.0462	0.0165	0.9585
5.2436	-5.8066	3.6221	-4.8149	-1.1254	3.7452	6.8704	-32.6012	775.5323	-65.4838	291.7189	62.8434	611.4694	-0.0592	0.0182	-0.0073	-0.0462	0.0165	0.9585
5.2573	-3.6515	2.6565	-2.7388	-0.90795	2.0749	4.4788	-29.7997	759.0918	-62.2145	285.5153	58.5416	594.8197	-0.0592	0.0182	-0.0073	-0.0462	0.0165	0.9585
5.2709	-2.0035	1.9473	-1.1968	-0.7404	0.82879	2.6816	-26.4712	743.7446	-58.844	279.7596	54.0724	578.5638	-0.0592	0.0182	-0.0073	-0.0462	0.0165	0.9585
5.2846	-0.86215	1.4883	-0.16435	-0.62744	-0.0093584	1.4739	-22.8168	731.1249	-55.4813	275.0823	49.6116	564.0541	-0.0592	0.0182	-0.0073	-0.0462	0.0165	0.9585
5.2982	-0.16283	1.2395	0.44789	-0.56376	-0.51534	0.77681	-19.0328	722.4841	-52.2324	271.9609	45.3124	552.3178	-0.0592	0.0182	-0.0073	-0.0462	0.0165	0.9585
5.3119	0.19264	1.1349	0.74197	-0.53512	-0.77064	0.44889	-15.3021	718.5069	-49.2038	270.6469	41.3032	543.9467	-0.0592	0.0182	-0.0073	-0.0462	0.0165	0.9585
5.3255	0.2945	1.1154	0.82457	-0.52496	-0.86456	0.36546	-11.7783	719.2502	-46.5084	271.1473	37.6917	539.0626	-0.0592	0.0182	-0.0073	-0.0462	0.0165	0.9585
5.3391	0.22611	1.1085	0.78082	-0.51065	-0.86615	0.39442	-8.5618	724.1368	-44.2439	273.2249	34.5524	537.3003	-0.0592	0.0182	-0.0073	-0.0462	0.0165	0.9585
5.3528	0.047122	1.0358	0.6792	-0.46554	-0.83238	0.42222	-5.7155	732.051	-42.4913	276.4378	31.9357	537.9034	-0.0592	0.0182	-0.0073	-0.0462	0.0165	0.9585
5.3664	-0.19609	0.81511	0.55992	-0.36108	-0.79457	0.35283	-3.2481	741.4848	-41.276	280.2019	29.8384	539.8175	-0.0592	0.0182	-0.0073	-0.0462	0.0165	0.9585
5.3801	-0.45344	0.36795	0.45411	-0.16906	-0.77053	0.093604	-1.1589	750.7742	-40.5758	283.8784	28.2267	541.8816	-0.0592	0.0182	-0.0073	-0.0462	0.0165	0.9585
5.3937	-0.67884	-0.35905	0.36962	0.13249	-0.75363	-0.42124	0.56538	758.341	-40.3114	286.8674	27.0321	542.993	-0.0592	0.0182	-0.0073	-0.0462	0.0165	0.9585
5.4074	-0.81378	-1.387	0.31489	0.55345	-0.73444	-1.2374	1.9356	762.944	-40.3728	288.703	26.1752	542.291	-0.0592	0.0182	-0.0073	-0.0462	0.0165	0.9585
5.421	-0.78562	-2.6732	0.29015	1.0791	-0.68893	-2.3362	2.945	763.8959	-40.6275	289.1284	25.5723	539.3167	-0.0592	0.0182	-0.0073	-0.0462	0.0165	0.9585
5.4346	-0.49882	-4.0863	0.28441	1.6564	-0.56875	-3.6091	3.6354	761.2002	-40.9597	288.1453	25.1405	534.0614	-0.0592	0.0182	-0.0073	-0.0462	0.0165	0.9585
5.4483	0.17724	-5.3611	0.28934	2.1769	-0.31696	-4.8226	4.0888	755.584	-41.3	286.0226	24.8075	527.0002	-0.0592	0.0182	-0.0073	-0.0462	0.0165	0.9585
5.4619	1.3767	-6.0301	0.27421	2.4526	0.15032	-5.5636	4.471	748.343	-41.6548	283.2372	24.5192	518.9631	-0.0592	0.0182	-0.0073	-0.0462	0.0165	0.9585
5.4756	3.2304	-5.3873	0.21482	2.2015	0.90902	-5.2094	5.0185	741.049	-42.0608	280.3663	24.2114	510.9436	-0.0592	0.0182	-0.0073	-0.0462	0.0165	0.9585
5.4892	5.8136	-2.4532	0.064475	1.0364	2.0336	-2.8915	5.9825	735.1834	-42.5648	277.9499	23.8189	503.8809	-0.0592	0.0182	-0.0073	-0.0462	0.0165	0.9585
5.5029	9.0788	3.9989	-0.21594	-1.5215	3.5412	2.4784	7.5878	731.7299	-43.1955	276.3399	23.2721	498.3835	-0.0592	0.0182	-0.0073	-0.0462	0.0165	0.9585
5.5165	12.7649	15.3184	-0.68536	-5.9977	5.378	12.1073	9.9331	730.8828	-43.9749	275.589	22.5428	494.5793	-0.0592	0.0182	-0.0073	-0.0462	0.0165	0.9585
5.5301	16.259	32.7243	-1.3746	-12.8657	7.3267	27.1173	12.9799	731.9101	-44.8793	275.4086	21.6312	492.0035	-0.0592	0.0182	-0.0073	-0.0462	0.0165	0.9585
5.5438	18.4974	56.8983	-2.2859	-22.3909	8.9696	48.1848	16.4978	733.3004	-45.8123	275.2298	20.5694	489.7227	-0.0592	0.0182	-0.0073	-0.0462	0.0165	0.9585
5.5574	18.0163	87.5156	-3.3363	-34.4444	9.665	75.1577	20.1059	733.0419	-46.6043	274.3154	19.4034	486.506	-0.0592	0.0182	-0.0073	-0.0462	0.0165	0.9585
5.5711	13.7182	123.2145	-4.3456	-48.4845	8.8314	107.0071	23.3805	729.0476	-47.058	271.9225	18.1799	481.0732	-0.0592	0.0182	-0.0073	-0.0462	0.0165	0.9585
5.5847	6.192	161.9849	-4.9713	-63.6911	6.3899	142.0755	25.9384	719.575	-46.9796	267.4516	16.9295	472.3723	-0.0592	0.0182	-0.0073	-0.0462	0.0165	0.9585
5.5984	-2.7125	200.5239	-4.6835	-78.7158	2.5779	177.3877	27.5546	703.3913	-46.2377	260.5043	15.6654	459.6347	-0.0592	0.0182	-0.0073	-0.0462	0.0165	0.9585
5.612	-11.1997	234.1612	-3.0034	-91.7002	-2.3272	208.6601	28.1531	679.9239	-44.79	250.9284	14.4028	442.4889	-0.0592	0.0182	-0.0073	-0.0462	0.0165	0.9585
5.6256	-18.1684	259.7261	-0.31985	-101.4089	-7.503	232.9819	27.8351	649.4858	-42.6793	238.8816	13.138	421.1081	-0.0592	0.0182	-0.0073	-0.0462	0.0165	0.9585
5.6393	-23.5165	277.2875	2.8654	-107.8935	-12.4386	250.4079	26.8826	613.273	-40.0654	224.8261	11.8633	396.2045	-0.0592	0.0182	-0.0073	-0.0462	0.0165	0.9585
5.6529	-27.6949	289.4512	5.9177	-112.2182	-16.729	263.2287	25.6645	573.1198	-37.1544	209.4405	10.5597	368.9148	-0.0592	0.0182	-0.0073	-0.0462	0.0165	0.9585
5.6666	-31.224	299.6406	8.5404	-115.7608	-20.3314	274.3807	24.5495	531.0529	-34.0808	193.4708	9.1716	340.5024	-0.0592	0.0182	-0.0073	-0.0462	0.0165	0.9585
5.6802	-34.4261	310.9528	10.5391	-119.7638	-23.2177	286.4152	23.7933	488.9403	-30.8705	177.6031	7.6115	312.1688	-0.0592	0.0182	-0.0073	-0.0462	0.0165	0.9585
5.6939	-37.4113	325.5676	12.0616	-125.0911	-25.5826	301.042	23.5381	448.2892	-27.5343	162.3893	5.8242	284.8972	-0.0592	0.0182	-0.0073	-0.0462	0.0165	0.9585
5.7075	-40.1483	344.4992	13.4039	-132.1377	-27.6814	318.9315	23.7888	410.1569	-24.1319	148.2091	3.8326	259.3865	-0.0592	0.0182	-0.0073	-0.0462	0.0165	0.9585
5.7211	-42.5213	367.6866	14.9767	-140.8726	-29.832	339.8513	24.4199	375.0666	-20.7953	135.2416	1.7514	236.0023	-0.0592	0.0182	-0.0073	-0.0462	0.0165	0.9585
5.7348	-44.3753	394.4211	17.0221	-151.0239	-32.179	362.9949	25.2422	343.0012	-17.6761	123.4676	-0.26621	214.7466	-0.0592	0.0182	-0.0073	-0.0462	0.0165	0.9585
5.7484	-45.6102	423.849	19.6603	-162.2703	-34.7757	387.4569	25.9995	313.5091	-14.9139	112.7055	-2.0408	195.3553	-0.0592	0.0182	-0.0073	-0.0462	0.0165	0.9585
5.7621	-46.1436	455.3369	22.8372	-174.3825	-37.525	412.5352	26.4094	285.7733	-12.5736	102.6436	-3.4279	177.3099	-0.0592	0.0182	-0.0073	-0.0462	0.0165	0.9585
5.7757	-45.9381	488.6455	26.4697	-187.2852	-40.3238	437.903	26.1849	258.7937	-10.661	92.9038	-4.3143	159.9719	-0.0592	0.0182	-0.0073	-0.0462	0.0165	0.9585
5.7894	-44.9889	523.9044	30.4261	-201.0365	-43.0503	463.5868	25.0809	231.6489	-9.1213	83.1371	-4.646	142.7492	-0.0592	0.0182	-0.0073	-0.0462	0.0165	0.9585
5.803	-43.3179	561.298	34.5799	-215.7025	-45.603	489.7029	22.9687	203.7915	-7.8847	73.1314	-4.4208	125.2682	-0.0592	0.0182	-0.0073	-0.0462	0.0165	0.9585
5.8166	-41.0066	600.6694	38.8666	-231.201	-47.9552	516.185	19.8892	175.2375	-6.8656	62.8791	-3.7165	107.5074	-0.0592	0.0182	-0.0073	-0.0462	0.0165	0.9585
5.8303	-38.1873	641.2641	43.2867	-247.2094	-50.1523	542.5773	16.0861	146.5201	-5.992	52.5658	-2.6744	89.7524	-0.0592	0.0182	-0.0073	-0.0462	0.0165	0.9585
